<?xml version="1.0" encoding="UTF-8" standalone="no"?>
<!-- Created with Inkscape (http://www.inkscape.org/) -->

<svg
   xmlns:dc="http://purl.org/dc/elements/1.1/"
   xmlns:cc="http://creativecommons.org/ns#"
   xmlns:rdf="http://www.w3.org/1999/02/22-rdf-syntax-ns#"
   xmlns:svg="http://www.w3.org/2000/svg"
   xmlns="http://www.w3.org/2000/svg"
   xmlns:sodipodi="http://sodipodi.sourceforge.net/DTD/sodipodi-0.dtd"
   xmlns:inkscape="http://www.inkscape.org/namespaces/inkscape"
   width="69.982819mm"
   height="49.754032mm"
   viewBox="0 0 69.982819 49.754032"
   version="1.1"
   id="svg7620"
   inkscape:version="0.92.1 r15371"
   sodipodi:docname="dead astronaut.svg">
  <defs
     id="defs7614" />
  <sodipodi:namedview
     id="base"
     pagecolor="#ffffff"
     bordercolor="#666666"
     borderopacity="1.0"
     inkscape:pageopacity="0.0"
     inkscape:pageshadow="2"
     inkscape:zoom="1.3403626"
     inkscape:cx="159.96427"
     inkscape:cy="92.297124"
     inkscape:document-units="mm"
     inkscape:current-layer="layer1"
     showgrid="false"
     inkscape:snap-global="false"
     fit-margin-top="0"
     fit-margin-left="0"
     fit-margin-right="0"
     fit-margin-bottom="0"
     inkscape:window-width="1366"
     inkscape:window-height="705"
     inkscape:window-x="-8"
     inkscape:window-y="-8"
     inkscape:window-maximized="1" />
  <metadata
     id="metadata7617">
    <rdf:RDF>
      <cc:Work
         rdf:about="">
        <dc:format>image/svg+xml</dc:format>
        <dc:type
           rdf:resource="http://purl.org/dc/dcmitype/StillImage" />
        <dc:title></dc:title>
      </cc:Work>
    </rdf:RDF>
  </metadata>
  <g
     inkscape:label="Layer 1"
     inkscape:groupmode="layer"
     id="layer1"
     transform="translate(-507.72869,-193.91012)">
    <path
       style="fill:#000000;stroke-width:0.99999994"
       d="m 2118.9883,732.88867 c -0.573,0 -1.0137,2.61362 -1.0137,6.01172 0,5.67489 -0.9599,8.72545 -3.6797,11.69922 -1.5398,1.68378 -2.2908,1.62546 -4.4668,-0.34375 -1.6887,-1.52829 -1.8685,-1.45839 -2.8418,1.10156 -0.7806,2.05255 -1.4714,2.55664 -2.7754,2.01953 -4.8345,-1.99139 -5.2363,-1.85787 -5.2363,1.75782 0,3.38275 -0.1316,3.49915 -4.6406,4.11718 -2.5518,0.3498 -9.7136,0.63672 -15.916,0.63672 -7.0848,0 -11.4079,0.39576 -11.6309,1.06445 -0.1951,0.58549 -2.2583,1.31905 -4.584,1.63086 -2.3257,0.31193 -4.2285,0.97787 -4.2285,1.48047 0,0.50257 -1.161,2.07512 -2.5801,3.49414 -2.4017,2.40167 -2.5938,3.28082 -2.7695,12.70118 -0.1858,9.96374 -0.2301,10.13856 -2.9238,11.42968 -2.2963,1.10056 -2.5701,1.625 -1.6973,3.25586 0.572,1.06874 1.6393,1.94336 2.3711,1.94336 1.5862,0 0.5586,7.43897 -1.2812,9.2793 -0.6158,0.61576 -1.1192,2.35885 -1.1192,3.87305 0,2.16336 -0.7497,3.10899 -3.5,4.41406 -1.925,0.91351 -3.5,2.24358 -3.5,2.95508 0,0.71486 -2.2371,1.86608 -5,2.57422 -2.75,0.70475 -5,1.56351 -5,1.9082 0,0.34473 -1.8457,1.66376 -4.1016,2.93164 -2.4729,1.38984 -4.6271,3.56503 -5.4257,5.47656 -0.7287,1.74376 -2.3705,3.66239 -3.6485,4.26367 -1.278,0.60129 -5.4742,2.56603 -9.3242,4.36524 -4.004,1.87124 -8.6024,4.9832 -10.7441,7.27343 -3.6766,3.93166 -3.8152,3.98482 -7.6172,2.84571 -2.1296,-0.63802 -5.1559,-1.16016 -6.7266,-1.16016 -1.5707,0 -5.9549,-0.97855 -9.7422,-2.17383 -5.4955,-1.73442 -7.2643,-1.9363 -8.7636,-1 -2.7695,1.72955 -3.8202,1.45613 -5.0879,-1.32617 -1.1612,-2.54842 -4.1719,-3.35771 -5.3575,-1.43945 -0.3609,0.58394 -1.737,1.47216 -3.0585,1.97461 -1.5304,0.58186 -2.4024,1.71275 -2.4024,3.11133 0,1.20782 -0.7875,3.08376 -1.75,4.16992 -1.2827,1.44752 -1.4162,2.0916 -0.5,2.41211 0.6875,0.24045 1.25,1.09013 1.25,1.88867 0,1.12377 -0.4357,1.21842 -1.9277,0.41992 -3.4928,-1.86932 -5.2855,-0.25719 -4.5508,4.0918 0.5095,3.01583 0.3058,3.99927 -0.9277,4.47265 -1.3994,0.53696 -1.3593,0.91997 0.3554,3.32813 1.9251,2.70346 1.9241,2.73245 -0.1426,4.50195 -1.5691,1.34396 -1.7675,1.973 -0.8105,2.56446 0.8955,0.55343 0.5686,0.998 -1.1133,1.51171 -3.1021,0.94753 -5.9903,3.5095 -5.2695,4.67579 0.6098,0.98672 -4.0948,5.8164 -5.666,5.8164 -0.5217,0 -0.9473,0.45001 -0.9473,1 0,1.56956 6.3133,1.16924 8.7774,-0.55664 2.1457,-1.503 2.2226,-1.45649 2.2226,1.38477 0,2.38012 -0.6692,3.26019 -3.5,4.60351 -1.925,0.91348 -3.5,2.34706 -3.5,3.18555 0,1.75706 -2.3543,4.38281 -3.9297,4.38281 -0.5892,0 -1.0745,0.56251 -1.082,1.25 -0.01,0.6875 -1.5818,2.26526 -3.5,3.50781 -1.9182,1.24256 -3.4883,2.70507 -3.4883,3.25 0,1.64066 2.5653,1.12227 5.375,-1.08789 2.9907,-2.35245 5.7933,-2.25325 3.4668,0.12305 -2.0076,2.05066 -4.8418,6.25281 -4.8418,7.17774 0,1.84923 2.5701,0.50124 5.6602,-2.97071 3.9782,-4.46974 4.2385,-3.74592 0.8398,2.3418 -1.375,2.46285 -2.5,4.68786 -2.5,4.94336 0,2.30396 7.8321,-4.05354 9.2734,-7.52735 0.8789,-2.11801 1.1079,-2.2269 1.4688,-0.69921 0.235,0.99507 -0.4477,2.57008 -1.5156,3.5 -1.0675,0.92953 -2.2592,2.70398 -2.6504,3.9414 -0.9997,3.16993 1.8058,2.98591 4.1289,-0.27148 0.9882,-1.38558 2.5844,-3.47877 3.5469,-4.65235 0.9625,-1.17354 1.75,-3.00278 1.75,-4.06445 0,-1.10442 0.5348,-1.74926 1.25,-1.50586 0.6875,0.23392 1.25,1.7346 1.25,3.33399 0,3.95285 1.7028,4.46964 3.3574,1.01757 1.0366,-2.16325 1.0961,-3.41261 0.25,-5.26953 -0.6099,-1.33852 -1.1094,-3.72444 -1.1094,-5.30273 0,-1.57829 -0.5625,-3.13224 -1.25,-3.45313 -1,-0.46669 -1,-0.70131 0,-1.16797 0.6875,-0.32084 1.246,-1.78335 1.2422,-3.25 -0.011,-3.56262 4.1282,-12.16601 5.8535,-12.16601 0.946,0 1.1871,-0.73882 0.7754,-2.37891 -1.2811,-5.10421 7.1277,-11.16461 11.9277,-8.5957 3.0468,1.63056 4.0007,0.82553 2.2813,-1.92773 -1.5416,-2.46853 -5.4476,-2.7531 -8.4942,-0.61915 -1.96,1.37284 -2.1433,1.30467 -2.5742,-0.94921 -0.2551,-1.33456 0.033,-2.96601 0.6387,-3.625 0.8152,-0.88687 0.7748,-1.01452 -0.1504,-0.49219 -0.6875,0.38816 -1.25,0.2852 -1.25,-0.22852 0,-0.51371 1.2765,-1.18819 2.8359,-1.5 2.5255,-0.50506 2.785,-0.91166 2.375,-3.70508 -0.433,-2.95007 -0.2902,-3.11542 2.4141,-2.80664 2.6657,0.3046 2.8994,0.67388 3.1816,5.07813 0.1677,2.61248 0.6981,4.75 1.1797,4.75 0.4816,0 1.0201,1.01251 1.1953,2.25 0.4139,2.91488 2.2247,2.9117 2.6387,-0.004 0.1916,-1.3494 -0.3077,-2.49603 -1.2441,-2.85547 -2.4606,-0.9442 -0.9086,-2.18945 2.7265,-2.18945 h 3.3067 l -0.5977,4.15039 c -0.3442,2.38938 -1.0958,4.04698 -1.7695,3.91016 -0.6436,-0.13093 -0.9451,0.34973 -0.6699,1.0664 0.275,0.71672 -0.6404,2.53402 -2.0352,4.03907 -1.3948,1.505 -2.5371,3.00762 -2.5371,3.33984 0,0.33226 -1.0209,1.9973 -2.2695,3.69922 -1.2487,1.70192 -2.9339,4.39754 -3.7461,5.99023 -1.8715,3.66974 -2.0484,16.74675 -0.2344,17.35352 0.6875,0.22998 1.25,0.84448 1.25,1.36719 0,1.93285 5.7592,6.49411 9.6836,7.66992 7.9083,2.36938 15.7043,1.06569 19.2617,-3.22071 2.1148,-2.54814 3.4274,-1.78268 1.6348,0.95313 -1.5266,2.3283 -1.5262,2.56411 -0.014,3.14453 0.9177,0.35214 2.0237,0.0154 2.5195,-0.76758 0.6988,-1.10332 0.8871,-1.01172 0.8985,0.4375 0.024,2.87607 2.3826,1.37654 3.7871,-2.4082 l 1.2695,-3.42578 -0.3476,3.25 c -0.1913,1.78753 -0.2365,3.25 -0.1016,3.25 0.1348,0 1.0176,0.29732 1.9629,0.66016 1.4608,0.56045 1.6473,0.16739 1.2383,-2.61915 -0.4798,-3.26883 -0.4769,-3.27281 1.2051,-1.04296 2.2993,3.0483 6.0019,1.96542 6.0019,-1.75586 0,-2.3243 0.1427,-2.43275 1.25,-0.95118 1.8912,2.53032 4.3289,0.65838 2.8184,-2.16406 -0.6263,-1.16995 -0.7259,-2.12695 -0.2207,-2.12695 0.5052,0 1.1549,0.90166 1.4433,2.0039 0.3487,1.33361 1.0536,1.80162 2.1094,1.39649 0.8733,-0.3349 1.28,-1.10679 0.9043,-1.71484 -0.3758,-0.60802 1.0021,-0.11018 3.0625,1.10546 2.0604,1.21565 3.9322,2.20899 4.1582,2.20899 0.226,0 1.043,-1.2075 1.8164,-2.6836 l 1.4063,-2.68359 0.7148,2.43359 c 1.4529,4.94571 3.0582,7.9336 4.2617,7.9336 0.6803,0 1.5288,1.1665 1.8867,2.5918 0.5503,2.19239 1.0542,2.49844 3.2696,1.98242 6.4981,-1.51359 8.1191,-1.63971 8.1191,-0.63282 0,1.87257 3.9972,1.18699 4.0313,-0.6914 0.017,-0.96253 0.6943,-2.62488 1.5039,-3.69531 1.1423,-1.51038 1.7396,-1.67833 2.6679,-0.75 1.9077,1.90764 4.7061,1.39715 7.2227,-1.31836 1.282,-1.38335 2.9725,-2.2696 3.7558,-1.96875 0.8224,0.31555 3.2186,-1.15808 5.6641,-3.48438 3.6501,-3.47221 4.8561,-4.0332 8.6953,-4.0332 3.7461,0 4.459,0.31044 4.459,1.9414 0,1.06753 -0.45,2.21882 -1,2.5586 -0.55,0.33989 -1,1.6899 -1,3 0,1.31006 -0.5083,2.69649 -1.1289,3.08008 -1.931,1.19342 1.9305,2.62277 5.166,1.91211 2.8779,-0.63209 4.1307,0.66891 1.9453,2.01953 -2.1874,1.3519 0.2978,2.32942 5.6055,2.20508 4.2643,-0.0998 6.1346,-0.65528 7.9902,-2.375 2.4927,-2.31017 3.3511,-7.64947 1.4219,-8.8418 -0.55,-0.33993 -1,-1.43906 -1,-2.44336 0,-1.00426 -1.125,-2.56392 -2.5,-3.46484 -1.375,-0.90093 -2.5,-2.53099 -2.5,-3.62305 0,-1.0921 -1.2001,-3.33134 -2.666,-4.97656 -2.2937,-2.57435 -3.3741,-2.99452 -7.75,-3.00586 -2.7966,-0.008 -5.6591,-0.38058 -6.3613,-0.82617 -1.4951,-0.94878 -13.7554,0.5195 -16.4707,1.97265 -2.2721,1.21591 -16.5739,1.96672 -17.2305,0.9043 -0.2588,-0.4187 -2.5679,-1.35025 -5.1328,-2.06836 -2.9661,-0.83044 -4.838,-1.97187 -5.1426,-3.13672 -0.2634,-1.00732 -1.2611,-1.83203 -2.2148,-1.83203 -2.937,0 -8.0342,-2.13159 -8.0039,-3.34766 0.015,-0.63367 1.2995,-2.39842 2.8535,-3.92187 1.554,-1.52345 3.6684,-4.33597 4.6992,-6.25 1.0307,-1.91407 2.3203,-3.48047 2.8652,-3.48047 1.7547,0 5.5547,-5.23589 5.5547,-7.6543 0,-1.28946 -0.4181,-2.3457 -0.9297,-2.3457 -0.5362,0 -0.6018,-1.16457 -0.1543,-2.75 0.9031,-3.19941 0.483,-4.84949 -2.0664,-8.13477 -2.4002,-3.09294 -2.335,-4.11523 0.2578,-4.11523 1.5745,0 1.94,0.43111 1.4512,1.70508 -0.738,1.92325 2.3166,8.29492 3.9766,8.29492 2.069,0 4.5094,-2.51992 5.3242,-5.5 l 0.8203,-3 2.1562,3.5 c 1.4052,2.28068 2.1582,2.88635 2.1602,1.73828 0,-1.48471 0.6105,-1.66497 3.8652,-1.14453 3.2107,0.51341 4.2244,0.23061 6.0059,-1.68164 1.1787,-1.26524 1.9242,-3.00001 1.6562,-3.85547 -0.4442,-1.41831 3.2887,-4.05664 5.7403,-4.05664 1.8903,0 12.2034,-5.25254 13.3984,-6.82422 1.1798,-1.5515 1.2764,-1.54301 1.3067,0.12305 0.048,2.72613 -4.5209,6.374 -8.7246,6.96875 -6.1786,0.87409 -9.2442,2.46281 -9.2442,4.78711 0,3.13867 -6.9259,9.50435 -10,9.1914 -2.0742,-0.2112 -3.0712,0.69556 -5.8555,5.32227 -1.8457,3.06712 -3.9554,5.80707 -4.6875,6.08789 -0.7319,0.28089 -1.086,1.14824 -0.7871,1.92773 0.3928,1.02346 -0.2674,1.41602 -2.375,1.41602 -3.0905,0 -7.2949,3.14589 -7.2949,5.45703 0,0.75772 -0.3375,1.52763 -0.75,1.71094 -1.2991,0.57736 -6.3541,7.06189 -5.8769,7.53906 1.0598,1.05986 4.8825,-2.13869 8.6484,-7.23633 3.1565,-4.27287 4.6362,-5.47511 6.7598,-5.49023 2.1737,-0.0159 3.2858,-0.9755 5.5507,-4.79297 2.7633,-4.65736 8.7183,-12.1009 9.0176,-11.27149 0.082,0.22855 1.8681,-0.39862 3.9668,-1.39453 2.6715,-1.26769 4.321,-2.97832 5.5,-5.70117 1.3746,-3.17435 2.4189,-4.08796 5.6836,-4.9707 7.0255,-1.89955 10.4722,-4.12993 11.7227,-7.58789 0.7589,-2.09874 1.8449,-3.26172 3.0488,-3.26172 3.4762,0 5.006,-2.65895 4.2871,-7.45313 -0.5685,-3.79109 -0.3944,-4.46454 1.2988,-5.00195 1.0761,-0.34152 2.2039,-1.26411 2.5059,-2.05078 0.3019,-0.78671 2.1448,-2.09586 4.0937,-2.91016 2.7451,-1.14697 3.543,-2.05505 3.543,-4.03125 0,-3.26543 -1.7664,-3.29723 -3,-0.0527 -0.5304,1.39517 -1.7502,2.5 -2.7598,2.5 -0.995,0 -2.6073,1.35001 -3.582,3 -0.9747,1.64999 -2.4338,3 -3.2441,3 -1.144,0 -1.4127,1.15538 -1.1953,5.16406 0.2765,5.10089 0.239,5.17569 -3.0899,6.06055 -2.7753,0.73769 -3.6853,0.55596 -5.164,-1.03125 -1.7578,-1.88663 -1.7033,-1.91691 2.6191,-1.42969 3.8737,0.43661 4.416,0.25957 4.416,-1.44141 0,-1.06639 -0.6612,-2.81325 -1.4687,-3.88086 -1.8073,-2.3891 -1.9744,-5.5852 -0.2813,-5.36523 4.1551,0.53953 5.0045,-0.0554 4.4004,-3.07617 -0.5836,-2.91799 -0.4953,-3 3.252,-3 4.9118,0 6.9217,-2.36909 4.8164,-5.67969 -1.7829,-2.8035 1.2133,-1.92471 4.1875,1.22852 1.7904,1.89823 3.7462,3.45117 4.3457,3.45117 1.8831,0 4.748,3.22345 4.748,5.3418 0,2.80459 3.863,6.6582 6.6738,6.6582 1.2792,0 2.3262,-0.45 2.3262,-1 0,-1.69126 2.4617,-1.10882 4.2774,1.01172 2.281,2.66407 2.1849,4.34386 -0.2129,3.71679 -1.1537,-0.30168 -2.1637,0.0879 -2.5,0.96485 -0.8226,2.14386 -0.6908,7.31318 0.1855,7.27539 1.5364,-0.0652 4.25,-2.73997 4.25,-4.18945 0,-1.00422 0.745,-1.37262 2.25,-1.11524 4.2738,0.73134 5.0005,-0.78641 4.8418,-10.10351 -0.1593,-9.35471 -1.3557,-12.56055 -4.6875,-12.56055 -1.1624,0 -3.3269,-1.12501 -4.8105,-2.5 -1.4837,-1.37499 -3.5835,-2.5 -4.6661,-2.5 -1.0826,0 -3.7495,-1.12501 -5.9277,-2.5 -2.1781,-1.37499 -4.373,-2.5 -4.8769,-2.5 -0.8762,0 -3.8491,-3.31258 -9.0098,-10.03711 -1.8977,-2.474 -2.8893,-2.98418 -4.834,-2.49609 -1.5705,0.39416 -2.2173,0.24183 -1.8047,-0.42579 0.3536,-0.57206 0.1926,-1.04101 -0.3574,-1.04101 -0.55,0 -1.2774,0.45 -1.6172,1 -0.3399,0.55 -1.4972,1 -2.5723,1 -3.2943,0 -9.9277,4.47914 -9.9277,6.70312 0,1.06999 -6.7786,5.29688 -8.4941,5.29688 -0.3156,0 -0.3718,-1.23751 -0.1231,-2.75 0.2485,-1.51249 0.4898,-3.25625 0.5352,-3.875 0.091,-1.23946 5.4341,-2.82385 8.582,-2.54492 1.4843,0.13137 1.6495,-0.0496 0.6426,-0.70118 -0.9461,-0.61238 -1.0219,-1.08541 -0.25,-1.5625 0.6087,-0.37616 1.1074,-1.52761 1.1074,-2.55859 0,-1.27733 0.8762,-2.00717 2.75,-2.29101 2.5596,-0.38767 2.525,-0.42695 -0.5,-0.56641 -1.7875,-0.0824 -3.25,0.32769 -3.25,0.91016 0,0.5825 -0.4075,0.80607 -0.9062,0.49804 -0.4987,-0.30822 -0.6859,0.28944 -0.4141,1.32813 0.6,2.2944 -0.8577,3.29877 -5.5371,3.81445 -5.2368,0.57706 -6.1438,1.75985 -5.6699,7.39649 0.2266,2.6963 -0.013,4.90234 -0.5313,4.90234 -0.5182,0 -0.9414,1.08882 -0.9414,2.41797 0,1.32914 -0.3547,2.56669 -0.7871,2.75 -1.0864,0.46065 -5.2599,6.49972 -7.4219,10.74023 -2.2488,4.41082 -2.4269,17.3554 -0.291,21.0918 0.786,1.37503 1.446,3.32564 1.4649,4.33398 0.046,2.37838 -2.3485,1.60505 -2.836,-0.91601 -0.2039,-1.05442 -0.8213,-3.04298 -1.373,-4.41797 -0.5519,-1.37499 -0.9156,-4.84563 -0.8086,-7.71289 0.1805,-4.8353 0.01,-5.25894 -2.377,-5.85742 -1.4139,-0.35486 -2.5703,-1.30811 -2.5703,-2.11719 0,-1.09644 -0.7636,-1.32255 -3,-0.89063 -1.65,0.31873 -4.4062,0.85182 -6.125,1.18555 -2.0069,0.38978 -2.9009,0.24288 -2.4961,-0.41211 0.3467,-0.56096 2.5424,-1.3369 4.877,-1.72461 2.3346,-0.3877 5.1441,-0.86716 6.2441,-1.06445 3.3847,-0.60756 9.4724,-3.64045 8.9629,-4.46485 -0.2651,-0.42881 0.1766,-1.4364 0.9805,-2.24023 0.8038,-0.8039 1.2328,-1.689 0.955,-1.9668 -0.2777,-0.27775 0.7387,-1.4828 2.2579,-2.67773 2.6299,-2.06869 2.7485,-2.52857 2.4843,-9.61719 -0.2162,-5.80671 0.082,-7.80258 1.3496,-9.07031 0.8939,-0.89393 1.3774,-2.27243 1.0743,-3.0625 -0.4143,-1.07962 -0.027,-1.26881 1.5644,-0.76367 1.1646,0.3696 2.6247,0.74768 3.2442,0.84179 0.6195,0.0943 1.6894,0.52362 2.3769,0.95313 3.0589,1.91097 3.7346,-1.82329 1.3848,-7.65234 -1.3174,-3.26744 -1.4692,-5.68555 -0.3574,-5.68555 1.7875,0 5.2052,3.22396 4.5781,4.31836 -0.3723,0.65004 -0.3075,0.8491 0.1426,0.4414 0.45,-0.40773 1.4562,-0.21181 2.2363,0.43555 1.7968,1.49129 3.2273,-0.46687 3.25,-4.44531 0.01,-1.77097 0.5496,-2.75 1.5156,-2.75 0.825,0 1.5,-0.41872 1.5,-0.93164 0,-2.11752 4.1294,-2.2236 5.9258,-0.15235 2.1074,2.4299 5.6057,2.74847 6.4355,0.58594 0.3166,-0.82499 1.7152,-1.5 3.1075,-1.5 1.5834,0 2.5312,-0.56169 2.5312,-1.5 0,-0.87273 0.9409,-1.52445 2.25,-1.55469 8.4341,-0.20466 11.1162,-0.72692 12.3399,-2.40039 1.1066,-1.51336 1.0811,-2.28109 -0.1583,-4.67773 -0.815,-1.57712 -1.9211,-2.86719 -2.457,-2.86719 -0.5402,0 -0.9888,-3.23077 -1.0039,-7.25 -0.027,-6.61221 -0.2898,-7.5359 -2.9863,-10.5 -1.6261,-1.78753 -3.4129,-3.25 -3.9707,-3.25 z m 9.6914,32.39649 c -0.975,-0.003 -2.3799,0.0804 -4.2754,0.24414 -3.811,0.32923 -7.3797,1.13668 -7.9297,1.79492 -1.5687,1.87744 -7.5646,4.56445 -10.1855,4.56445 -1.3078,0 -2.6169,-0.62445 -2.9102,-1.38867 -0.654,-1.70442 -4.4005,-0.9854 -6.1328,1.17773 -0.6756,0.84371 -0.9654,2.58699 -0.6426,3.87305 0.3642,1.45092 0.1443,2.33789 -0.5801,2.33789 -0.642,0 -0.8465,0.51901 -0.455,1.15235 0.9851,1.59401 3.4062,-1.8492 3.4062,-4.84375 0,-1.38565 0.5998,-2.3086 1.5,-2.3086 0.825,0 1.5,0.40143 1.5,0.89258 0,2.1154 3.5146,1.88417 9.7793,-0.64648 3.6964,-1.49322 7.0412,-3.17224 7.4336,-3.73047 0.3924,-0.5582 2.7898,-1.07184 5.3262,-1.14063 2.5363,-0.0688 5.1076,-0.62129 5.7148,-1.22851 0.5034,-0.50346 0.076,-0.7458 -1.5488,-0.75 z m -67.6426,2.66796 c 0.526,-0.0265 1.2211,0.59703 1.9375,1.93555 0.5889,1.10003 0.7532,2 0.3672,2 -0.3859,0 -0.4845,0.21672 -0.2188,0.48242 0.2656,0.26559 1.9632,0.0577 3.7715,-0.46093 2.8468,-0.81646 3.3548,-0.68403 3.791,0.98437 0.2772,1.05982 1.3559,2.19701 2.3965,2.52735 1.0406,0.33024 1.8926,1.47028 1.8926,2.5332 0,2.81333 -2.6733,2.36949 -3.4101,-0.56641 -0.6292,-2.50666 -0.9167,-2.60924 -8.0899,-2.88476 -2.6249,-0.10088 -3.0404,-0.52156 -3.3144,-3.36524 -0.197,-2.04269 0.2007,-3.15136 0.8769,-3.18555 z m 12.4375,2.93555 c 0.89,0 1.3398,0.45001 1,1 -0.3399,0.55 -0.7898,1 -1,1 -0.2101,0 -0.6602,-0.45 -1,-1 -0.3399,-0.54999 0.1101,-1 1,-1 z m 5.8633,6.34571 c 0.091,0.0137 0.2005,0.16765 0.3203,0.46679 0.2888,0.72189 0.2521,1.5838 -0.08,1.91602 -0.3324,0.33229 -0.5688,-0.25832 -0.5254,-1.3125 0.03,-0.72808 0.1336,-1.09327 0.2852,-1.07031 z m 67.2891,38.65429 c -1.6012,0 -1.8026,0.49907 -1.2715,3.1543 0.8843,4.42148 2.4013,5.93907 5.2324,5.22851 2.7942,-0.70132 3.2285,1.02757 0.6367,2.53711 -1.5811,0.92081 -1.5436,1.02433 0.3926,1.05079 2.4586,0.0348 3.3574,1.78502 3.3574,6.53906 0,2.37294 0.5085,3.45481 1.75,3.72656 1.9982,0.43756 8.25,-2.17762 8.25,-3.45117 0,-0.46428 1.9125,-0.75653 4.25,-0.64844 5.6349,0.26045 8.6313,-1.13539 12.25,-5.70703 0.9244,-1.16784 1.5787,-2.23347 2.002,-3.1875 -1.4347,-1.3453 -3.0265,-2.86821 -4.7305,-4.53711 -0.076,0.0139 -0.1434,0.0197 -0.2207,0.0352 -1.6734,0.33467 -3.659,1.22537 -4.4121,1.97851 -0.9478,0.94776 -2.4879,1.15743 -5.0039,0.6836 -1.9994,-0.37667 -4.7401,-0.66318 -6.0918,-0.63672 -1.3517,0.0266 -2.9267,-0.52672 -3.5,-1.23047 -1.0883,-1.33576 -5.8713,-2.87488 -5.1114,-1.64453 0.2395,0.38747 0.023,1.35947 -0.4824,2.1582 -0.7212,1.14028 -0.9222,0.97995 -0.9336,-0.74219 -0.017,-2.44675 -3.4466,-5.30664 -6.3632,-5.30664 z m -108.9532,8 c 2.3331,0 3.1929,1.5341 1.2266,2.18945 -1.1962,0.39875 1.5083,3.47933 7.8535,8.94532 2.3214,1.99971 4.2207,4.13722 4.2207,4.75 0,0.61281 0.45,1.11523 1,1.11523 0.55,0 1,0.45001 1,1 0,0.55 -0.675,1 -1.5,1 -0.825,0 -1.5,-0.56859 -1.5,-1.26172 0,-2.15214 -5.0862,-6.9199 -6.7148,-6.29492 -1.057,0.40566 -1.3318,0.11744 -0.918,-0.96094 0.3927,-1.0233 -0.4912,-2.19843 -2.6387,-3.50781 -4.294,-2.61819 -5.7285,-2.4853 -5.7285,0.52539 0,1.74074 -0.5474,2.5 -1.8008,2.5 -0.99,0 -2.2954,0.49462 -2.9004,1.09961 -0.8,0.80001 -1.674,0.52523 -3.205,-1.00586 -1.7867,-1.78666 -1.9167,-2.40664 -0.8594,-4.09961 0.6852,-1.09712 1.5882,-1.99414 2.0058,-1.99414 1.2957,0 0.8396,1.21578 -0.9902,2.64063 -1.6666,1.29781 -1.6666,1.33433 0,0.7539 0.9798,-0.34121 1.75,-0.12172 1.75,0.49805 0,0.60884 0.4811,1.10742 1.0703,1.10742 1.6999,0 3.9297,-2.68243 3.9297,-4.72851 0,-2.53081 1.9145,-4.27149 4.6992,-4.27149 z m 1.3008,14 c 0.55,0 1,0.45001 1,1 0,0.55 -0.45,1 -1,1 -0.55,0 -1,-0.45 -1,-1 0,-0.54999 0.45,-1 1,-1 z m -9.3828,5 c 0.8249,0 1.2226,0.45001 0.8828,1 -0.3399,0.55 -1.2941,1 -2.1191,1 -0.8249,0 -1.2207,-0.45 -0.8809,-1 0.3399,-0.54999 1.2922,-1 2.1172,-1 z m -4.0176,2.0586 c 0.2849,0.035 0.3969,0.27107 0.3946,0.6914 0,0.4125 -1.354,1.51622 -3,2.45313 -3.592,2.04393 -4.0367,0.70822 -0.5293,-1.58985 1.7047,-1.11697 2.6599,-1.61303 3.1347,-1.55468 z m 29.7403,8.67968 c -0.8509,-0.007 -2.0581,0.63601 -3.9297,1.84961 -3.5794,2.31969 -3.9474,2.93889 -3.5899,6 0.4781,4.09474 1.519,4.22428 6.5313,0.81836 3.2815,-2.22984 3.7258,-2.96641 3.1621,-5.25 -0.5744,-2.32689 -1.0799,-3.40904 -2.1738,-3.41797 z m -71.8399,2.26172 c 0.825,0 1.5,0.45001 1.5,1 0,0.55 -0.675,1 -1.5,1 -0.825,0 -1.5,-0.45 -1.5,-1 0,-0.54999 0.675,-1 1.5,-1 z m 3.9277,0.23633 c 0.5063,0.0168 1.1577,0.12261 1.9532,0.32227 2.6229,0.65831 3.4955,2.78169 1.6191,3.9414 -1.7178,1.06163 -1.0972,3.15001 1.25,4.20703 1.9059,0.85845 1.4853,1.02919 -2.75,1.11914 -2.75,0.0583 -4.4981,-0.21727 -3.8848,-0.61132 1.8739,-1.20378 2.6511,-5.18834 1.3243,-6.78711 -1.2308,-1.48301 -1.0306,-2.24175 0.4882,-2.19141 z m -33.9687,8.98828 c 0.8874,0.0938 1.6395,1.18769 2.2988,3.33594 1.0079,3.28399 0.9436,3.59364 -0.6543,3.17578 -1.7891,-0.46783 -2.1212,0.29184 -2.2422,5.13281 -0.037,1.48887 -0.7939,2.56168 -2.0371,2.88672 -2.3307,0.60949 -4.2355,4.48154 -4.6718,9.49414 -0.2973,3.41556 -3.1524,1.75449 -3.1524,-1.83398 0,-1.2375 -0.5625,-2.45809 -1.25,-2.71094 -0.6875,-0.25304 -0.057,-0.77733 1.4004,-1.16602 2.1092,-0.56239 2.7336,-1.42491 3.0605,-4.22656 0.2717,-2.32679 -0.042,-3.69418 -0.9257,-4.0332 -0.9982,-0.38302 -1.0546,-0.85345 -0.2246,-1.85352 0.6112,-0.73666 0.8217,-1.8087 0.4668,-2.38281 -0.3549,-0.57411 0.057,-1.04297 0.914,-1.04297 1.3554,0 2.0631,1.79716 1.6758,4.25 -0.065,0.41246 0.806,0.75 1.9336,0.75 1.8195,0 2.0145,-0.53234 1.748,-4.71679 -0.2318,-3.64324 0.058,-4.78729 1.2715,-5.03711 0.1325,-0.0273 0.2619,-0.0349 0.3887,-0.0215 z m 34.5156,2.81641 c 4.1944,0.0755 8.9535,2.19449 12.4629,5.87695 1.6154,1.69504 3.7529,3.08203 4.75,3.08203 0.9971,0 1.8125,0.49523 1.8125,1.09961 0,2.24988 -3.256,7.85943 -4.2168,7.26563 -0.6276,-0.3879 -0.551,-0.89009 0.2051,-1.35743 0.912,-0.56367 0.8269,-1.4654 -0.3535,-3.74804 -0.8549,-1.65328 -1.3327,-3.22788 -1.0606,-3.5 0.2721,-0.27326 -0.645,-0.27818 -2.039,-0.0117 -1.3941,0.26646 -2.5352,0.0344 -2.5352,-0.51563 0,-0.54996 -0.7875,-1.26474 -1.75,-1.58789 -0.9625,-0.32315 -2.5261,-1.15386 -3.4746,-1.8457 -1.3896,-1.0134 -2.3607,-1.00016 -5,0.0644 -1.8015,0.72666 -3.7947,1.35372 -4.4297,1.39453 -0.6354,0.0409 -0.9261,0.67487 -0.6445,1.40821 0.2814,0.73334 0.066,1.33203 -0.4785,1.33203 -0.5448,0 -1.2118,1.15755 -1.4825,2.57226 -0.3978,2.08086 0.011,2.76194 2.1348,3.56055 1.4438,0.54297 3.6036,2.11548 4.7988,3.49414 1.1952,1.37866 2.5452,2.36331 3,2.18945 1.2127,-0.46343 1.6646,4.24569 0.5176,5.39258 -0.637,0.63704 -1.8331,0.41848 -3.4316,-0.6289 -2.2803,-1.49386 -2.6239,-1.47563 -4.8574,0.25781 -1.3219,1.02588 -2.9649,1.66855 -3.6524,1.42969 -1.8176,-0.63107 -1.5322,-7.29769 0.4043,-9.4375 1.7762,-1.96252 1.8459,-1.91949 -3.75,-2.33399 -2.3558,-0.1745 -2.5627,0.10194 -2.2441,2.99414 0.2536,2.3017 -0.3454,3.99615 -2.1543,6.09961 -1.3775,1.60165 -2.5052,4.06332 -2.5059,5.47071 -7e-4,1.40738 -0.6298,3.42083 -1.4004,4.47461 -1.3469,1.8419 -1.4165,1.82065 -1.7695,-0.5586 -0.5312,-3.58133 0.9495,-12.40113 2.1484,-12.80078 0.5621,-0.18735 1.0215,-1.1375 1.0215,-2.11133 0,-0.97383 1.0125,-2.87222 2.25,-4.21875 1.2375,-1.34649 3.5829,-4.22518 5.2129,-6.39648 3.4958,-4.65646 4.3898,-5.53496 7.3125,-7.19727 1.5032,-0.85494 3.2927,-1.2433 5.1992,-1.20898 z m 3.8242,7.00781 c 0.4823,0 0.8917,0.2413 1.375,0.72461 0.9666,0.9668 0.8579,1.22656 -0.5214,1.22656 -0.9614,0 -2.88,1.23751 -4.2618,2.75 -2.3012,2.51887 -2.4141,2.55028 -1.3515,0.37891 0.7016,-1.43324 0.752,-2.11947 0.1289,-1.73438 -0.5669,0.35037 -1.3128,0.18005 -1.6582,-0.3789 -0.3455,-0.559 0.08,-1.01563 0.9453,-1.01563 0.8649,0 2.4544,-0.55286 3.5332,-1.22656 0.7739,-0.48331 1.3282,-0.72461 1.8105,-0.72461 z m 26.5371,2.26562 c 0.6344,0.0126 1.1452,0.43875 0.9668,1.26758 -0.1084,0.50415 -0.8939,1.0626 -1.7461,1.24024 -1.0681,0.22261 -1.3572,-0.17884 -0.9296,-1.29297 0.317,-0.82611 1.0746,-1.22734 1.7089,-1.21485 z m -5.9726,2.03126 c 0.091,0.0137 0.2005,0.16764 0.3203,0.46679 0.2888,0.72189 0.2521,1.5838 -0.08,1.91602 -0.3321,0.33229 -0.5688,-0.25832 -0.5254,-1.3125 0.03,-0.72808 0.1336,-1.09326 0.2852,-1.07031 z m -20.8965,2.15624 c 0.7055,-0.004 1.3698,0.21218 1.6875,0.7129 0.448,0.70612 0.8145,1.51 0.8145,1.78515 0,0.275 -0.3866,1.10924 -0.8594,1.85547 -0.5993,0.94564 -1.0662,1.02152 -1.543,0.25 -0.3763,-0.60873 -0.3586,-1.63388 0.039,-2.27734 0.4861,-0.78649 0.1775,-0.96065 -0.9414,-0.53125 -0.9153,0.3513 -1.6641,0.25126 -1.6641,-0.22266 0,-0.94405 1.291,-1.56504 2.4668,-1.57227 z m -10.0059,3.9629 c -0.3998,-0.0662 -1.0905,0.56751 -1.873,1.76171 -0.9678,1.47708 -1.4701,3.15433 -1.1152,3.72852 0.8705,1.40855 3.8487,1.32117 5.3261,-0.15625 1.6365,-1.63635 1.5148,-3.79883 -0.2148,-3.79883 -0.7792,0 -1.6029,-0.5542 -1.8281,-1.23047 -0.061,-0.18226 -0.1617,-0.28262 -0.295,-0.30468 z m 16.5899,6.73046 c 0.305,0.0205 0.6974,0.12288 1.1992,0.28125 1.2375,0.39058 3.4875,0.94436 5,1.23047 1.5125,0.286 2.75,0.73216 2.75,0.99219 0,0.79775 -11.0385,11.30078 -11.8769,11.30078 -0.4325,0 -1.3272,1.013 -1.9903,2.25195 -0.6631,1.23905 -2.5756,3.03907 -4.25,4 -3.8736,2.22309 -13.1155,2.37748 -14.8828,0.24805 -0.6847,-0.82499 -1.6714,-1.5 -2.1934,-1.5 -0.5214,0 -1.6571,-0.70796 -2.5214,-1.57226 -1.409,-1.40882 -1.4132,-1.7294 -0.045,-3.09766 1.2069,-1.20684 1.9689,-1.28836 3.6426,-0.39258 1.1642,0.62302 2.1172,1.56701 2.1172,2.09766 0,0.53064 0.7011,0.96484 1.5586,0.96484 0.8575,0 1.2812,0.45001 0.9414,1 -0.3401,0.55 -0.1781,1 0.3594,1 0.5374,0 1.6886,0.27174 2.5586,0.60547 1.0487,0.40244 1.582,0.0516 1.582,-1.04297 0,-0.90795 0.5625,-1.57748 1.25,-1.48828 4.1333,0.53673 7.6499,-0.172 7.1621,-1.44336 -0.3116,-0.81199 0.3111,-1.58726 1.5313,-1.90625 1.4963,-0.39129 2.0566,-1.35239 2.0566,-3.52539 0,-1.73227 0.63,-3.22877 1.5,-3.5625 0.8938,-0.34295 1.5,-1.84688 1.5,-3.72266 0,-2.10619 0.1357,-2.78037 1.0508,-2.71875 z m 30.3223,1.85352 c 0.7583,-0.0655 2.0382,0.43903 3.9902,1.45703 1.5754,0.82163 3.7129,1.49414 4.75,1.49414 1.0371,0 1.8848,0.34834 1.8848,0.77539 0,0.42679 -1.9126,0.64419 -4.25,0.48242 l -4.25,-0.29492 3.75,1.75391 c 3.2755,1.53146 3.7549,2.1975 3.7851,5.26758 l 0.033,3.51562 1.877,-2.25 c 1.0323,-1.23749 2.1425,-2.25 2.4668,-2.25 0.3244,0 0.5898,3.15002 0.5898,7 v 0 c 0,6.75848 -1.1879,9.1342 -2.5,5 -0.3492,-1.09999 -0.9814,-2 -1.4063,-2 -0.4249,0 -1.3412,-1.72163 -2.0352,-3.82422 -1.5283,-4.63237 -4.274,-6.66647 -7.0156,-5.19922 -2.2987,1.23032 -6.0429,1.35001 -6.0429,0.19336 0,-0.45596 1.0125,-0.79384 2.25,-0.75 2.4289,0.0857 2.6851,-1.16361 1.4628,-7.16992 -0.4253,-2.09003 -0.3128,-3.11695 0.6622,-3.20117 z m -20.8418,3.95117 c 0.2926,0 2.1485,0.67497 4.123,1.5 1.9745,0.825 4.8302,1.5 6.3457,1.5 2.5462,0 5.8924,2.43965 4.8184,3.51367 -0.2568,0.25678 -3.043,-0.20339 -6.1914,-1.02343 -7.8814,-2.05289 -8.5844,-1.89384 -5.127,1.16406 1.6502,1.45931 2.2261,2.37897 1.2813,2.04297 -2.2042,-0.78373 -3.3067,0.9651 -1.7735,2.8125 0.6495,0.78244 1.0004,1.96379 0.7793,2.62695 -0.221,0.66319 -0.9941,-0.22018 -1.7168,-1.96484 -1.4192,-3.42641 -3.0703,-4.21875 -3.0703,-1.47266 0,1.25643 -0.2939,1.40728 -1.123,0.57813 -0.617,-0.61569 -1.7421,-0.88478 -2.5,-0.59375 -0.758,0.29087 -1.377,0.0447 -1.377,-0.54688 0,-0.59146 -0.675,-0.81672 -1.5,-0.5 -0.825,0.3168 -1.5,0.26864 -1.5,-0.10742 0,-1.10789 5.7474,-6.5293 6.9219,-6.5293 0.5923,0 1.0781,-0.675 1.0781,-1.5 0,-0.82503 0.2387,-1.5 0.5313,-1.5 z m 72.8281,0.4668 c 1.0386,-0.0136 2.1739,0.07 3.3555,0.26172 4.8207,0.78232 4.0036,2.27148 -1.2461,2.27148 -3.4115,0 -4.6869,0.43253 -5.1563,1.75 -1.0656,2.99112 -5.6557,6.1751 -8.9551,6.21289 -2.5026,0.0287 -3.2677,0.54557 -3.7675,2.53711 -0.7213,2.87384 -2.7311,3.2388 -4.709,0.85547 -1.2139,-1.46264 -1.116,-1.56647 0.8965,-0.92773 1.9223,0.61009 2.4836,0.1935 3.7265,-2.78125 1.5945,-3.81612 5.203,-5.74105 6.582,-3.50977 0.6653,1.07645 1.1416,0.94577 2.3418,-0.64258 0.8293,-1.09731 1.5222,-2.73051 1.5411,-3.6289 0.028,-1.44879 2.2749,-2.35771 5.3906,-2.39844 z m 14.9433,3.57617 c 0.9549,0.0459 1.6973,0.37461 1.6973,0.95703 0,0.55 -0.6031,1 -1.3398,1 -0.7368,0 -1.8521,1.12501 -2.4786,2.5 -1.5737,3.45498 -3.5934,3.27598 -2.7109,-0.24023 0.3783,-1.50698 1.2135,-3.07479 1.8574,-3.48438 0.8513,-0.54157 2.0198,-0.77833 2.9746,-0.73242 z m -36.0527,4.96484 c 0.4125,-0.004 0.75,0.66716 0.75,1.49219 0,0.825 -0.418,1.5 -0.9277,1.5 -0.5097,0 -1.072,0.71357 -1.25,1.58789 -0.1779,0.87436 -0.607,1.30267 -0.9551,0.95117 -0.7511,-0.75862 1.3002,-5.51991 2.3828,-5.53125 z m 37.2188,3.99219 c 0.895,0 1.2433,0.5863 0.8925,1.5 -0.3165,0.825 -0.9776,1.5 -1.4687,1.5 -0.4912,0 -0.8926,-0.675 -0.8926,-1.5 0,-0.82499 0.661,-1.5 1.4688,-1.5 z m -44.7403,0.53125 c 0.2571,-0.0105 0.2715,0.45488 0.2715,1.38672 0,1.05502 0.2737,2.63003 0.6074,3.5 0.3339,0.87001 0.1089,1.58008 -0.5,1.58008 -0.6088,0 -1.1074,-0.45 -1.1074,-1 0,-0.55 -0.675,-1 -1.5,-1 -1.9936,0 -1.8923,-0.60767 0.5,-3 0.9717,-0.97151 1.4714,-1.45631 1.7285,-1.4668 z"
       transform="scale(0.26458333)"
       id="path8201"
       inkscape:connector-curvature="0" />
  </g>
</svg>
